<svg xmlns="http://www.w3.org/2000/svg" viewBox="0 0 1920 1080">
  <defs>
    <linearGradient id="bgGradient" x1="0%" y1="0%" x2="100%" y2="100%">
      <stop offset="0%" stop-color="#e0f2ff"/>
      <stop offset="40%" stop-color="#bae6fd"/>
      <stop offset="100%" stop-color="#93c5fd"/>
    </linearGradient>
    <linearGradient id="circuitGradient" x1="0%" y1="0%" x2="100%" y2="0%">
      <stop offset="0%" stop-color="#0ea5e9" stop-opacity="0.2"/>
      <stop offset="50%" stop-color="#38bdf8" stop-opacity="0.6"/>
      <stop offset="100%" stop-color="#0ea5e9" stop-opacity="0.2"/>
    </linearGradient>
    <radialGradient id="glow" cx="50%" cy="50%" r="50%">
      <stop offset="0%" stop-color="#bae6fd" stop-opacity="0.9"/>
      <stop offset="100%" stop-color="#bae6fd" stop-opacity="0"/>
    </radialGradient>
  </defs>
  <rect width="1920" height="1080" fill="url(#bgGradient)"/>
  <g opacity="0.35">
    <circle cx="400" cy="240" r="280" fill="url(#glow)"/>
    <circle cx="1520" cy="320" r="320" fill="url(#glow)"/>
    <circle cx="960" cy="780" r="360" fill="url(#glow)"/>
  </g>
  <g stroke="url(#circuitGradient)" stroke-width="3" fill="none" opacity="0.6">
    <path d="M200 260 H600 Q660 260 660 320 V520 Q660 580 720 580 H1100 Q1180 580 1180 500 V300 Q1180 240 1240 240 H1720"/>
    <path d="M220 660 H520 Q620 660 620 760 V860 Q620 920 700 920 H1280 Q1360 920 1360 860 V540 Q1360 480 1440 480 H1700"/>
    <path d="M300 140 H860 Q940 140 940 220 V380 Q940 440 1000 440 H1500"/>
    <path d="M260 420 H860 Q940 420 940 500 V640 Q940 700 1000 700 H1660"/>
  </g>
  <g fill="#0ea5e9" opacity="0.6">
    <circle cx="600" cy="260" r="10"/>
    <circle cx="720" cy="580" r="12"/>
    <circle cx="1100" cy="580" r="10"/>
    <circle cx="1240" cy="240" r="9"/>
    <circle cx="520" cy="660" r="8"/>
    <circle cx="860" cy="140" r="9"/>
    <circle cx="940" cy="380" r="8"/>
    <circle cx="1440" cy="480" r="9"/>
    <circle cx="1660" cy="700" r="8"/>
  </g>
  <g fill="#38bdf8" opacity="0.45">
    <circle cx="860" cy="500" r="7"/>
    <circle cx="1280" cy="920" r="9"/>
    <circle cx="1500" cy="440" r="6"/>
    <circle cx="1720" cy="260" r="7"/>
  </g>
</svg>
