<svg width="1600" height="900" viewBox="0 0 1600 900" xmlns="http://www.w3.org/2000/svg">
  <defs>
    <linearGradient id="aiGradient" x1="0%" y1="0%" x2="100%" y2="100%">
      <stop offset="0%" stop-color="#00BFFF" stop-opacity="0.6"/>
      <stop offset="50%" stop-color="#7f5af0" stop-opacity="0.4"/>
      <stop offset="100%" stop-color="#00e0ff" stop-opacity="0.2"/>
    </linearGradient>
    <radialGradient id="pulse" cx="50%" cy="50%" r="50%">
      <stop offset="0%" stop-color="#ffffff" stop-opacity="0.55"/>
      <stop offset="100%" stop-color="#ffffff" stop-opacity="0"/>
    </radialGradient>
  </defs>
  <rect width="1600" height="900" fill="url(#pulse)" opacity="0.35"/>
  <g stroke="url(#aiGradient)" stroke-width="2" fill="none" stroke-linecap="round" stroke-linejoin="round" opacity="0.85">
    <path d="M150 200 C350 150, 550 250, 750 200 S1150 150, 1350 220"/>
    <path d="M200 450 C400 500, 650 400, 900 450 S1300 520, 1450 460"/>
    <path d="M100 650 C300 580, 500 680, 700 640 S1100 600, 1500 700"/>
    <path d="M300 120 C450 200, 650 120, 850 160 S1150 220, 1400 140"/>
    <path d="M250 320 C450 380, 700 260, 950 340 S1250 420, 1500 360"/>
  </g>
  <g fill="#00BFFF" opacity="0.45">
    <circle cx="350" cy="180" r="6"/>
    <circle cx="550" cy="260" r="8"/>
    <circle cx="950" cy="180" r="6"/>
    <circle cx="1250" cy="420" r="7"/>
    <circle cx="650" cy="660" r="9"/>
    <circle cx="1100" cy="620" r="6"/>
  </g>
  <g fill="#7f5af0" opacity="0.35">
    <circle cx="200" cy="450" r="5"/>
    <circle cx="500" cy="350" r="7"/>
    <circle cx="800" cy="500" r="6"/>
    <circle cx="1200" cy="260" r="5"/>
    <circle cx="1450" cy="460" r="6"/>
  </g>
</svg>
